<svg xmlns="http://www.w3.org/2000/svg" viewBox="0 0 699.78 699.54"><defs><style>.cls-1{fill:#05294b;}</style></defs><g id="Layer_2" data-name="Layer 2"><g id="Layer_1-2" data-name="Layer 1"><path class="cls-1" d="M358.88,31.31,362.83,0l18.06,1.14V32.7L398.73,35l7.84-30.57,17.77,3.39-4,31.31,17.42,4.48,11.61-29.35,17.21,5.59-7.86,30.57L475.48,57l15.2-27.66L507.05,37,495.43,66.37,511.19,75,529.73,49.5,545,59.19,529.8,86.85l14.55,10.57,21.6-23,13.94,11.53-18.56,25.53,13.11,12.31,24.32-20.12,12.38,13.19-21.61,23L601,153.71l26.64-16.92,10.64,14.64L614,171.54l9.64,15.18,28.55-13.44,8.72,15.85L634.21,206l7.66,16.27,30-9.76,6.66,16.83L650,242.81l5.56,17.1,31-5.92,4.5,17.53-30,9.74,3.37,17.67,31.5-2,2.27,17.95-31,5.91,1.13,17.95,31.5,2v18.09l-31.5,2-1.13,17.95,31,5.91-2.27,18-31.5-2L661,418.27,691,428l-4.5,17.52-31-5.92L650,456.73l28.56,13.43L671.88,487l-30-9.76-7.66,16.28,26.65,16.9-8.72,15.86-28.55-13.45L614,528l24.33,20.11-10.64,14.64L601,545.83l-11.47,13.86,21.61,23-12.38,13.19-24.32-20.12-13.11,12.31,18.56,25.53L566,625.13l-21.6-23L529.8,612.69,545,640.34,529.73,650,511.19,624.5l-15.76,8.66,11.62,29.35-16.37,7.7-15.2-27.66-16.72,6.62,7.86,30.57-17.21,5.59L437.8,656l-17.42,4.47,4,31.32-17.77,3.39-7.84-30.58-17.85,2.26V698.4l-18.06,1.14-3.95-31.32h-18L337,699.54l-18.06-1.14V666.84l-17.84-2.26-7.85,30.58-17.77-3.39,4-31.32L262,656l-11.61,29.35-17.21-5.59L241,649.17l-16.72-6.62-15.2,27.66-16.37-7.7,11.62-29.35-15.76-8.66L170.05,650l-15.28-9.7L170,612.69l-14.55-10.57-21.6,23L119.89,613.6l18.56-25.53-13.11-12.31L101,595.88,88.64,582.69l21.61-23L98.78,545.83,72.14,562.75,61.51,548.11,85.83,528l-9.64-15.19L47.64,526.26,38.92,510.4l26.65-16.9-7.65-16.28L27.9,487l-6.66-16.82L49.8,456.73l-5.56-17.11-31,5.92L8.74,428l30-9.75-3.37-17.66-31.5,2-2.26-18,31-5.91L31.5,360.79l-31.5-2V340.72l31.5-2,1.13-17.95-31-5.91,2.26-17.95,31.5,2,3.37-17.67-30-9.74L13.24,254l31,5.92,5.56-17.1L21.24,229.38l6.66-16.83,30,9.76L65.57,206,38.92,189.13l8.72-15.85,28.55,13.44,9.64-15.18L61.51,151.43l10.63-14.64,26.64,16.92,11.47-13.86-21.61-23L101,103.66l24.32,20.12,13.11-12.31L119.89,85.94l13.94-11.53,21.6,23L170,86.85,154.77,59.19l15.28-9.69L188.59,75l15.76-8.67L192.73,37l16.37-7.7L224.3,57,241,50.37,233.16,19.8l17.21-5.59L262,43.56l17.42-4.48-4-31.31,17.77-3.39L301.06,35,318.9,32.7V1.14L337,0l3.95,31.31Z"/></g></g></svg>