<svg xmlns="http://www.w3.org/2000/svg" xmlns:xlink="http://www.w3.org/1999/xlink" viewBox="0 0 305.41 304.77"><defs><style>.cls-1{fill:url(#linear-gradient);}</style><linearGradient id="linear-gradient" y1="152.38" x2="305.41" y2="152.38" gradientUnits="userSpaceOnUse"><stop offset="0" stop-color="#fff"/><stop offset="0.14" stop-color="#c4cdd5"/><stop offset="0.32" stop-color="#8193a4"/><stop offset="0.48" stop-color="#4c657e"/><stop offset="0.61" stop-color="#254562"/><stop offset="0.72" stop-color="#0e3051"/><stop offset="0.79" stop-color="#05294b"/></linearGradient></defs><g id="Layer_2" data-name="Layer 2"><g id="Layer_1-2" data-name="Layer 1"><path class="cls-1" d="M157.48,17.74,163.77,0l9.79,1L176,19.69l9.34,2,9.84-16,9.37,3-1.47,18.77,8.72,3.88,13-13.64,8.52,4.92-5.33,18,7.72,5.61,15.52-10.65,7.31,6.58-9,16.55L256,65.83l17.4-7.19,5.78,8L266.93,80.93l4.77,8.26,18.51-3.41,4,9-14.92,11.47,2.95,9.07,18.81.51,2.05,9.63-17,8.12,1,9.49,18.3,4.4v9.85l-18.3,4.4-1,9.49,17,8.12L301.05,189l-18.81.5-2.95,9.08L294.21,210l-4,9-18.51-3.42-4.77,8.27,12.21,14.32-5.78,8L256,238.93l-6.39,7.1,9,16.54-7.31,6.59-15.52-10.65L228,264.12l5.33,18.05-8.52,4.92-13-13.64-8.72,3.88,1.47,18.77-9.37,3-9.84-16-9.34,2-2.47,18.66-9.79,1L157.48,287h-9.54l-6.3,17.74-9.79-1-2.47-18.66-9.33-2-9.85,16-9.36-3,1.46-18.77-8.72-3.88-13,13.64-8.53-4.92,5.33-18.05-7.72-5.61L54.18,269.16l-7.31-6.59,9-16.54-6.39-7.1-17.39,7.19-5.79-8,12.22-14.32-4.78-8.27L15.2,219l-4-9,14.93-11.47-2.95-9.08L4.36,189l-2.05-9.63,17-8.12-1-9.49L0,157.31v-9.85l18.3-4.4,1-9.49-17-8.12,2.05-9.63,18.82-.51,2.95-9.07L11.2,94.77l4-9,18.51,3.41,4.78-8.26L26.27,66.61l5.79-8,17.39,7.19,6.39-7.09-9-16.55,7.31-6.58L69.7,46.26l7.72-5.61-5.33-18,8.53-4.92,13,13.64,8.72-3.88L100.84,8.67l9.36-3,9.85,16,9.33-2L131.85,1l9.79-1,6.3,17.74Z"/></g></g></svg>