<svg xmlns="http://www.w3.org/2000/svg" viewBox="0 0 570.48 570.69"><defs><style>.cls-1{fill:#dddcda;}</style></defs><g id="Layer_2" data-name="Layer 2"><g id="Layer_1-2" data-name="Layer 1"><path class="cls-1" d="M292.58,0l1.65,26.36,14.55.92,5-25.95,14.55,1.84-1.66,26.36,14.32,2.74L349.1,7.14l14.21,3.65-5,26,13.87,4.5,11.24-23.9,13.64,5.4-8.16,25.12,13.19,6.21,14.15-22.31,12.86,7.07-11.26,23.9,12.32,7.81L447,50.18l11.87,8.63-14.16,22.3L456,90.4l19.25-18.08,10.69,10-16.84,20.35,10,10.63,21.37-15.53,9.35,11.3-19.26,18.08,8.57,11.8,23.15-12.73,7.86,12.38-21.38,15.52,7,12.78,24.56-9.73,6.24,13.28L523.4,183.21l5.37,13.56,25.58-6.58,4.54,13.95-24.57,9.72L538,228l26.21-3.32,2.75,14.41-25.59,6.56,1.83,14.47h26.41l.92,14.64-26.2,3.3v14.59l26.2,3.3-.92,14.64H543.15L541.32,325l25.59,6.57L564.16,346,538,342.7l-3.63,14.13,24.57,9.71-4.54,14-25.58-6.58-5.37,13.56,23.15,12.72-6.24,13.28-24.56-9.73-7,12.78,21.38,15.52-7.86,12.38L499.09,431.7l-8.57,11.8,19.26,18.08-9.35,11.3-21.37-15.53-10,10.63,16.84,20.35-10.69,10L456,480.29l-11.24,9.29,14.16,22.3L447,520.5,430.2,500.15,417.88,508l11.26,23.9-12.86,7.07-14.15-22.31-13.19,6.21L397.1,548l-13.64,5.4-11.24-23.9L358.35,534l5,25.95-14.21,3.65-8.16-25.13-14.32,2.74,1.66,26.36-14.55,1.84-5-26-14.55.92-1.65,26.36H277.91l-1.66-26.36-14.55-.92-4.94,26-14.56-1.84,1.67-26.36-14.33-2.74-8.16,25.13-14.2-3.65L212.13,534l-13.87-4.5L187,553.35,173.38,548l8.17-25.12-13.2-6.21L154.2,538.93l-12.85-7.07L152.6,508l-12.31-7.81L123.46,520.5l-11.87-8.62,14.16-22.3-11.24-9.29L95.26,498.37l-10.7-10L101.41,468l-10-10.63L70.06,472.88l-9.36-11.3L80,443.5l-8.58-11.8L48.25,444.43l-7.86-12.38,21.37-15.52-7-12.78-24.56,9.73L23.93,400.2l23.15-12.72-5.37-13.56L16.13,380.5l-4.53-14,24.56-9.71L32.53,342.7,6.33,346,3.58,331.61,29.16,325l-1.82-14.46H.92L0,295.94l26.21-3.3V278.05L0,274.75l.92-14.64H27.34l1.82-14.47L3.58,239.08l2.75-14.41L32.53,228l3.63-14.13L11.6,204.14l4.53-13.95,25.58,6.58,5.37-13.56L23.93,170.49l6.25-13.28,24.56,9.73,7-12.78L40.39,138.64l7.86-12.38L71.39,139,80,127.19,60.7,109.11l9.36-11.3,21.36,15.53,10-10.63L84.56,82.36l10.7-10L114.51,90.4l11.24-9.29-14.16-22.3,11.87-8.63,16.83,20.36,12.31-7.81-11.25-23.9,12.85-7.07,14.15,22.31,13.2-6.21-8.17-25.12L187,17.34l11.24,23.9,13.87-4.5-4.95-25.95,14.2-3.65,8.16,25.13,14.33-2.74L242.2,3.17l14.56-1.84,4.94,26,14.55-.92L277.91,0Z"/></g></g></svg>