<svg xmlns="http://www.w3.org/2000/svg" viewBox="0 0 471.89 471.58"><defs><style>.cls-1{fill:#fff;}</style></defs><g id="Layer_2" data-name="Layer 2"><g id="Layer_1-2" data-name="Layer 1"><path class="cls-1" d="M240.86,23.48,245.8,0l9.92.62,2,23.92,9.75,1.23,7.85-22.68L285,5l-1,24,9.51,2.44L304.13,9.86l9.45,3.07-4.05,23.65,9.14,3.62,13.24-20,9,4.23-7,22.95,8.61,4.74,15.65-18.2,8.38,5.33-9.8,21.9,7.95,5.77,17.8-16.08,7.66,6.33L377.7,77.66l7.16,6.72,19.68-13.72,6.8,7.24L396.4,96.67l6.26,7.57,21.25-11.15,5.84,8-17.18,16.76,5.27,8.3,22.47-8.41,4.79,8.71L426,141l4.18,8.89,23.35-5.52,3.66,9.23-20.8,12,3,9.34,23.86-2.55,2.47,9.62-22.14,9.26,1.85,9.65,24,.46,1.24,9.86-23.12,6.41.62,9.8,23.74,3.46v9.94l-23.74,3.46-.62,9.8,23.12,6.41-1.24,9.86-24,.46-1.85,9.65,22.14,9.26-2.47,9.62-23.86-2.55-3,9.34,20.8,12-3.66,9.24-23.35-5.53L426,330.63l19.14,14.48-4.79,8.7-22.47-8.4-5.27,8.29,17.18,16.76-5.84,8-21.25-11.15-6.26,7.57,14.94,18.78-6.8,7.24L384.86,387.2l-7.16,6.72,12.47,20.5-7.66,6.33-17.8-16.08-7.95,5.77,9.8,21.9-8.38,5.33-15.65-18.2-8.61,4.74,7,23-9,4.23-13.24-20L309.53,435l4.05,23.65-9.45,3.07L293.5,440.21,284,442.65l1,24-9.75,1.86-7.85-22.68L257.68,447l-2,23.92-9.92.62-4.94-23.48H231l-4.94,23.48-9.92-.62-2-23.92-9.75-1.23-7.85,22.68-9.76-1.86,1.05-24-9.51-2.44-10.63,21.51-9.45-3.07,4-23.65-9.13-3.62-13.24,20-9-4.23,7-23-8.61-4.74-15.65,18.2-8.38-5.33,9.79-21.9-7.94-5.77L89.37,420.75l-7.65-6.33,12.47-20.5L87,387.2,67.35,400.93l-6.8-7.24,14.94-18.78-6.26-7.57L48,378.49l-5.84-8L59.32,353.7l-5.27-8.29-22.47,8.4-4.79-8.7,19.14-14.48-4.18-8.89L18.4,327.27,14.74,318l20.8-12-3-9.34L8.65,299.28l-2.47-9.62,22.13-9.26-1.84-9.65-24-.46-1.24-9.86L24.36,254l-.62-9.8L0,240.76v-9.94l23.74-3.46.62-9.8L1.24,211.15l1.24-9.86,24-.46,1.84-9.65L6.18,181.92l2.47-9.62,23.86,2.55,3-9.34-20.8-12,3.66-9.23,23.35,5.52L45.93,141,26.79,126.48l4.79-8.71,22.47,8.41,5.27-8.3L42.14,101.12l5.84-8,21.25,11.15,6.26-7.57L60.55,77.9l6.8-7.24L87,84.38l7.16-6.72L81.72,57.16l7.65-6.33,17.81,16.08,7.94-5.77-9.79-21.9,8.38-5.33,15.65,18.2L138,47.37l-7-22.95,9-4.23,13.24,20,9.13-3.62-4-23.65,9.45-3.07,10.63,21.51,9.51-2.44L186.85,5l9.76-1.87,7.85,22.68,9.75-1.23,2-23.92L226.09,0,231,23.48Z"/></g></g></svg>